<svg xmlns="http://www.w3.org/2000/svg"  viewBox="0 0 512 512" width="48px" height="48px"><path fill="#EF4823" d="M320.9,345.1c-0.8,1.1-2,1.8-3.7,2c-16.5,2-27.8,23-15.8,36.4c0.1,0.2,0.3,0.3,0.4,0.5 c4.7-2.4,9.9-4.9,15.2-6.1c0.1-0.3,0.1-0.6,0.2-0.9c2.2-9,6.9-16.7,12.7-23.6C326.9,350.6,323.8,348,320.9,345.1z"/><path fill="#EF4823" d="M385.5,330.9c-4.5-0.6-9.1-0.6-13.6-0.3c-2.2,0.2-4.4,0.4-6.6,0.8c-0.3,0.1-0.5,0.1-0.8,0.2 c-0.5,0.7-1.1,1.2-1.8,1.6c1,1.9,2.1,3.8,3.7,5.3c1,0.9,1.5,1.9,1.7,3c5.9,1.7,11.7,4.4,16.7,8c2.8-3.1,5.5-6.5,6.5-10.2 C392.5,334.4,389.4,331.4,385.5,330.9z"/><path fill="#EF4823" d="M352.7,337.3c-1.9-3.1-5.5-4.8-9-5.6c-5.9-1.3-14.6-3-20.7-0.6c0.1,0.1,0.2,0.3,0.3,0.4 c1.3,1.9,2.8,3.5,4.5,5.1c3.1,3,6.4,5.8,9.5,8.9c0.3-0.2,0.6-0.4,0.9-0.6c4.6-3.3,10.1-5.2,15.8-5.3 C353.6,338.8,353.2,338,352.7,337.3z"/><path fill="#D6E5E5" d="M411.2,319.7c0.1-8.3,0.2-16.7-0.3-25c-0.5-7.7-1.7-15.3-2-23.1c-0.6-16.2,0.9-32.4,0.5-48.6 c-0.3-15.8-1.5-31.7-2.2-47.5c-0.7-15.7-1.4-31.2-3.5-46.8c-0.1-1-0.2-1.9-0.4-2.9c-0.2-0.4-0.4-0.9-0.4-1.4 c-0.4-0.2-1-0.5-1.2-0.5c-1.1-0.4-4.4-1.1-6.3-1.5c-6.5-1.1-13-1.7-19.6-2.2c-6.7-0.5-13.3-0.9-20-1.4c-4.1-0.3-8.6-0.4-12.6-1.6 c-3.7-1.1-5.2-4.2-3.9-7.8c3.2-8.7,4.6-18.2,4.8-27.6c-2,2.6-5,2.1-7,0.3c-0.2,0-0.4,0-0.7,0c-1.1,0-2.2,0.1-3.2,0.1 c-2.7,0.1-5.3,0.1-8,0.3c-8.1,0.6-16.1,0.7-24.2,0.9c-16.2,0.3-32.4,1-48.5,1.8c-33.3,1.8-66.5,4-99.8,4.1c-7.1,0-7.9-11-0.8-11 c37.9-0.1,75.6-3,113.4-4.8c18.5-0.9,37.2-0.2,55.6-1.7c6-0.5,12.3-1,18.3-0.6c2,0.1,3.7,0.9,4.8,1.9c0-0.2,0-0.4,0-0.6 c-0.6-11.6-4-22.8-4.9-34.3c-2.4,0-4.9,0.1-7.3,0.1c-25.8,0-51.6,0.1-77.4,0.3C204.2,39,154,39.4,103.8,39.4c0,0.3,0,0.6,0,0.9 c0.4,32.2,2.7,64.3,1.3,96.5c-0.7,16.2-1.6,32.5-0.6,48.8c1,16.3,2.1,32.5,2.5,48.8c0.3,16,0.4,32.1-0.9,48.1 c-1.2,16-2.3,32-2.1,48.1c0.4,30.4,6.2,60.3,6.8,90.7c26-0.9,52,0.6,78,1.8c26.8,1.3,53.5,1.4,80.2,1.1c0.1,0,0.2,0,0.3,0h1.3 c1,0,2.1,0,3.1,0v0h15.7c3,0,5.9,0.3,8.9,0.4c0.7,0,1.4,0,2.1,0c-5.6-5-9.7-11.6-11-19.2c-1-6,0.3-11,3.5-14.9 c-0.1-0.1-0.1-0.2-0.2-0.3c-0.7,0.5-1.6,0.9-2.6,1c-7,0.9-14-0.9-21-1c-0.3,0-0.5,0-0.8-0.1c-0.3,0-0.7,0-1,0 c-18.3,0.6-36.6-0.4-54.8-0.7c-17.5-0.2-34.8,2.9-52.3,1.9c-7.1-0.4-4.9-11.2,2.1-10.8c9.5,0.6,19-0.7,28.5-1.4 c8.9-0.7,17.7-0.7,26.5-0.5c17.7,0.4,35.3,1.2,53,0.4c1.1,0,2.2-0.1,3.4-0.2v0.7c4.5,0.4,9,1.1,13.5,0.8 c-2.7-7.6-2.5-15.9,1.2-23.8c4.9-10.4,14.1-17.8,25.3-20c-1.8-3.4-2.8-7.3-1.3-10.6c-2.3,0.1-4.7,0.2-7,0.4 c-20.8,1.3-41.6,3.4-62.4,4.8c-18,1.2-36.6,2.2-54.6,0.9c-5.9-0.4-11.9-1.1-17.8-1.2c-3.8-0.1-10.5-0.9-13.3,1.5 c-5.4,4.6-11.4-4.5-6.2-9.1c3.8-3.3,10.3-3.4,15.1-3.4c6.8,0,13.6,0.6,20.4,1.1c17.7,1.4,36,0.5,53.7-0.7 c21.4-1.5,42.8-3.7,64.3-4.9c11-0.6,22-1.2,33-1c9.7,0.2,19.5,0.9,29.2,1c2.9,0,4.8,1.9,5.5,4.1c5.6-0.4,11.4-0.4,16.7,0.8 c5.7,1.3,10.5,5.5,12.5,10.9c0.8,0,1.7,0.1,2.6,0.5c2.4,1.1,4.8,2.4,7.1,3.9v-3.6c0,0,0,0,0,0C411.2,328,411.1,323.9,411.2,319.7 z M364.7,174.4c-33.9,0-67.2,2.2-100.8,6.5c-34.2,4.4-68.7,4.5-103.2,4.5c-7.1,0-7.9-11-0.8-11c34.4,0,69,0.1,103.2-4.5 c32.9-4.4,65.5-6.4,98.6-6.5c0.1,0,0.1,0,0.2,0h2C370.9,163.4,371.8,174.4,364.7,174.4z M154.9,129.4c17.3,0,34.5-0.4,51.7-1.5 c16.6-1,33-3.4,49.7-3.8c17.8-0.4,35.5,0.4,53.3-0.1c8.5-0.2,17-1.1,25.5-1c8,0.1,15.9,0.4,23.8,0.4c7,0,7.9,11,0.8,11h-2 c-0.2,0-0.5,0-0.7,0c-7.6-0.1-15.3-0.5-22.9-0.4c-8.5,0.1-17,0.9-25.6,1.1c-17.1,0.3-34.3-0.4-51.4,0.1 c-17.2,0.5-34.3,2.9-51.5,3.9c-16.6,0.9-33.2,1.3-49.9,1.4C148.7,140.4,147.8,129.4,154.9,129.4z M155.9,220.4 c67.7,0,135.3-3,203-2c7,0.1,7.9,11.1,0.8,11c-67.7-1-135.3,2-203,2C149.7,231.4,148.8,220.4,155.9,220.4z M365.7,279.4 c-18.3-0.5-36.5,0.9-54.7,2.2c-17.8,1.3-35.6,1.6-53.4,1.9c-18,0.3-35.9,0.8-53.9,0.9c-15,0-29.9-1-44.9-1c-7.1,0-7.9-11-0.8-11 h0.9c0.1,0,0.1,0,0.2,0c15.2,0,30.5,1.1,45.7,1c17.9-0.1,35.9-0.7,53.8-0.9c17.9-0.2,35.6-0.7,53.4-2c17.6-1.3,35.2-2.6,52.8-2.1 C371.9,268.6,372.8,279.6,365.7,279.4z"/><path fill="#EF4823" d="M420.8,382c-0.7-1.9-1.5-3.6-2.2-5.4c-4.6,4.2-10.4,7.3-15.2,11.4c-0.8,1-1.6,1.7-2.6,2.4 c-1.5,5.1-4.2,9.9-7.7,14.1c5.1-0.5,10.2-1,15.2-2.2c1.2-0.3,2.3-0.5,3.4-0.9c0.4-0.1,1.8-0.9,1.2-0.4c2.8-1.9,5.3-4.1,6.6-7.3 C421,390.3,422.1,385.5,420.8,382z"/><path fill="#EF4823" d="M401.7,342.8c-1.6,5.2-5.2,9.8-8.8,14c4.2,4.8,7.3,10.5,8.6,17c0.1,0.6,0.2,1.1,0.3,1.7 c1.2-0.8,2.3-1.6,3.5-2.4c3.2-2.2,7.4-4.7,9-8.4C418.6,354.8,409.6,347,401.7,342.8z"/><path fill="#BCBCBC" d="M371.8,73.5c-5.2-7.3-12.2-13.1-18.1-19.8c-0.6-0.6-1.1-1.3-1.7-1.9c1.4,8.3,3.1,16.5,3.1,24.9 c0,10.5-0.9,20.9-3.7,30.9c3.1,0.4,6.3,0.4,9.3,0.6c7.9,0.5,15.7,1,23.5,1.7c2.8,0.3,8.2,0.5,13.6,1.4 C389.7,98.4,380.7,86,371.8,73.5z"/><path fill="#FEBF10" d="M387,366.9c-8.3-11.6-30.9-23.3-43.5-12.2c-6.8,7-13.6,15.1-15.6,24.9c1.6,2.4,1.4,5.9-0.7,7.6 c0,6.4,1.7,13,6.6,17c6.2,5,15.6,6.3,23.4,6c6.5-0.3,12.8-1.8,18.4-5c0.7-0.8,1.5-1.3,2.4-1.5c0.4-0.3,0.8-0.6,1.2-0.9 C390.1,394.4,395.5,379,387,366.9z"/><path fill="#EF4823" d="M434.7,432.1c-4.2-8.1-9.1-15.8-14-23.4c-0.5,0.4-1.1,0.7-1.7,1.1c0.1,0.8-0.1,1.6-0.4,2.4 c-5.1,13.9-17.4,18.7-30.5,20.9c0.3,0.7,0.7,1.6,0.8,1.9c0.4,1.1,0.4,2.1,0.2,3c2.7,7.8,9.8,13.7,13.8,20.8 c3.4,6,5.7,13.1,9.7,18.8c1.9-3,3.9-6,4.6-9c0.9-3.7,1.7-9.2,5.4-11.3c6.7-4,13.9-0.4,20.8,1.3 C443.1,449.3,438.8,439.9,434.7,432.1z"/><path fill="#EF4823" d="M386,415.9c-1.5,0-3.7-0.2-5.7-0.7c-0.9,0.5-1.8,1-2.6,1.4c-4.6,2.2-10,3.7-15.8,4.4 c3.1,4.8,16.8,2.3,20.8,1.7c8.7-1.2,16.9-2.6,22.3-8.7C398.7,415.1,392.3,415.9,386,415.9z"/><path fill="#EF4823" d="M322.3,411.1c0-1,0.2-1.8,0.5-2.5c0,0,0,0,0-0.1c-4-5.2-6.2-12.1-6.6-18.9c-3.2,1.1-6.3,2.5-9,4 c-5.5,2.9-8.6,5.5-6.3,12.1c3.2,9.6,12.5,16.7,22.5,18.2C322.4,419.8,322.3,415.5,322.3,411.1z"/><path fill="#EF4823" d="M350.5,421.3c-6.1-0.4-12-1.8-17.1-4.3c0.3,6.5,1.8,13.1,8.7,15c5.8,1.6,11.4,1.2,16.9,0.1 C354.7,430.2,351.5,426.8,350.5,421.3z"/><path fill="#EF4823" d="M334.4,440.6c-2.6-1.5-4.7-3.4-6.3-5.4c-3.5,0-6.9-0.4-10.4-1.4c0,0-0.1,0-0.1,0c-0.2,0-0.3,0-0.3,0 c0,0.1-0.1,0.3-0.2,0.5c-0.5,0.9-0.9,1.7-1.2,2.6c-0.8,2-1.3,4.1-1.8,6.1c-0.9,3.8-2,7.7-2.8,11.6c-1.8,9.1-5.4,18.3-6.6,27.6 c9.5-4.1,20.5-8.3,29.6-3.5c3.4,1.7,5.9,4.2,8.6,6.6c0.4-1.7,0.7-3.5,1-5.2c1.7-9.5,3.8-19.1,6.5-28.4c0.6-2.1,1.2-4.9,2.1-7.6 C346.2,444.8,340.2,444,334.4,440.6z"/><path d="M358.9,123.4c-8,0-15.9-0.4-23.8-0.4c-8.5-0.1-17,0.8-25.5,1c-17.8,0.5-35.5-0.3-53.3,0.1c-16.6,0.4-33.1,2.8-49.7,3.8 c-17.2,1.1-34.5,1.5-51.7,1.5c-7.1,0-6.2,11,0.8,11c16.6,0,33.3-0.4,49.9-1.4c17.2-1,34.3-3.4,51.5-3.9 c17.1-0.5,34.3,0.2,51.4-0.1c8.5-0.2,17-1,25.6-1.1c7.6-0.1,15.3,0.3,22.9,0.4c0.2,0,0.5,0,0.7,0h2 C366.8,134.4,365.9,123.5,358.9,123.4z"/><path d="M363.9,163.4h-2c-0.1,0-0.1,0-0.2,0c-33.1,0.1-65.8,2.1-98.6,6.5c-34.2,4.6-68.8,4.5-103.2,4.5c-7.1,0-6.2,11,0.8,11 c34.4,0,69,0,103.2-4.5c33.6-4.4,66.9-6.5,100.8-6.5C371.8,174.4,370.9,163.4,363.9,163.4z"/><path d="M358.9,218.4c-67.7-1-135.3,2-203,2c-7.1,0-6.2,11,0.8,11c67.7,0,135.3-3,203-2C366.8,229.5,365.9,218.5,358.9,218.4z"/><path d="M364.9,268.4c-17.6-0.5-35.2,0.8-52.8,2.1c-17.8,1.3-35.6,1.8-53.4,2c-17.9,0.2-35.9,0.8-53.8,0.9 c-15.3,0.1-30.5-0.9-45.7-1c-0.1,0-0.1,0-0.2,0H158c-7.1,0-6.2,11,0.8,11c15,0,29.9,1,44.9,1c18-0.1,35.9-0.6,53.9-0.9 c17.9-0.3,35.6-0.6,53.4-1.9c18.2-1.3,36.5-2.8,54.7-2.2C372.8,279.6,371.9,268.6,364.9,268.4z"/><path d="M428.5,400.4c2.8-4.4,3.5-9.7,3.7-14.7c0.4-6.9-3.9-12.3-5.3-18.8c-0.2-1-0.6-1.8-1.1-2.4c0-0.1,0-0.1,0.1-0.2 c1.4-7-0.5-13.3-4.1-18.6c0-0.1,0-0.1,0.1-0.2c1.9-0.9,3.4-2.8,3.4-5.3c-0.1-12-0.9-24-1-36c0-2-0.9-3.4-2.1-4.1 c0-2.1-0.1-4.2-0.2-6.2c-0.4-7.7-1.6-15.3-2-23.1c-0.4-7.8-0.2-15.6,0.1-23.4c0.9-30.6-1.2-61.1-2.7-91.6 c-0.5-10.9-2.1-21.6-3.2-32.3c1.7-1.7,2.2-4.3,0.7-6.8c-0.4-0.7-0.9-1.2-1.5-1.6c0-0.4-0.1-0.8-0.1-1.1h-0.9 c-9.7-16.7-21.1-32.3-32.3-48.1c-5-7.1-11.9-12.8-17.8-19.1c-3.2-3.4-5.7-7.3-7.9-11.4c-1.5-2.7-2.6-4.7-4.5-6.3 c-0.9-1.5-2.6-2.6-4.8-2.6c-1,0-1.7,0.1-2.7,0.4c-0.5,0.1-0.9,0.3-1.2,0.6c-2,0-4.1,0.1-6.1,0.1c-26.5,0-52.9,0.1-79.4,0.3 c-52.2,0.3-104.4,0.7-156.6,0.7c-2.4,0-3.9,1.3-4.6,3c-0.9,1-1.5,2.3-1.5,3.9c0.1,32.2,2.8,64.3,1.6,96.5 c-0.6,16.2-1.6,32.5-1.1,48.8c0.5,16.3,2.1,32.5,2.6,48.8c0.5,16.3,0.9,32.8-0.4,49.1c-1.2,15.7-2.3,31.4-2.5,47.2 c-0.3,31.6,5.9,62.7,6.8,94.2c0,1.8,0.1,3.6,0.1,5.4c0,2.5,1.3,4,3.1,4.6c0.9,1.5,2.6,2.6,4.9,2.5c27.9-1.3,55.9,0.4,83.8,1.7 c23.7,1.1,47.5,1.3,71.2,1.1v-0.6h5c0.7,0.3,1.5,0.5,2.4,0.5c7.4,0,15-0.4,22.4,0c3.5,0.2,7.8,0.6,11.8,0.2 c-1.5,5-2.3,10.4-3.2,14.1c-3.1,13.5-8.8,27.5-7.9,41.6c0.2,3.5,4,6,7.3,4.8c9.6-3.7,23-12.5,32.4-4.7c3,2.5,5.5,5.9,9.5,7 c4.9,1.3,8.4-2.5,9.9-6.7c3.1-8.2,3.8-17.6,5.8-26.1c1.2-5.1,2.5-10.3,4-15.3c0.5-1.7,1.1-3.3,1.7-4.9c0.3-0.8,0.7-1.5,1-2.2 c0,0,0,0,0,0c0.6-0.5,1-1,1.4-1.7c3.9-1.1,7.8-2.3,11.6-3.3c2.5,9.8,9.4,17.6,15.3,25.7c3,4.1,4.6,9.3,6.9,13.8 c2.6,5,5.6,9.7,10.1,13.3c2.6,2.1,7.1,1.7,8.6-1.7c2.2-5.1,6.1-9.5,8.2-14.6c0.7-1.6,1-3.4,1.5-5.1c0.2-0.6,0.9-2.5,1-3.2 c0.8,0,1.7,0.2,2.5,0.3c2,0.3,4.1,0.9,6.1,1.4c3.8,1,7.4,1.9,11.3,2.1c2.3,0.1,4.7-2.2,5-4.4 C457.1,442.2,440.8,419.3,428.5,400.4z M418.6,376.5c0.8,1.8,1.6,3.6,2.2,5.4c1.3,3.6,0.2,8.4-1.2,11.7c-1.4,3.2-3.9,5.4-6.6,7.3 c0.6-0.4-0.9,0.3-1.2,0.4c-1.1,0.4-2.3,0.6-3.4,0.9c-5,1.1-10.1,1.7-15.2,2.2c3.5-4.2,6.1-9,7.7-14.1c1.1-0.6,1.8-1.4,2.6-2.4 C408.2,383.8,414,380.7,418.6,376.5z M414.3,364.6c-1.6,3.8-5.8,6.2-9,8.4c-1.2,0.8-2.3,1.6-3.5,2.4c-0.1-0.6-0.2-1.1-0.3-1.7 c-1.3-6.4-4.4-12.1-8.6-17c3.6-4.2,7.1-8.8,8.8-14C409.6,347,418.6,354.8,414.3,364.6z M352,51.8c0.6,0.7,1.1,1.3,1.7,1.9 c6,6.7,12.9,12.4,18.1,19.8c8.8,12.5,17.9,24.9,26,37.9c-5.4-0.9-10.8-1.1-13.6-1.4c-7.8-0.7-15.7-1.2-23.5-1.7 c-3-0.2-6.2-0.3-9.3-0.6c2.8-10.1,3.8-20.4,3.7-30.9C355.1,68.3,353.5,60.1,352,51.8z M298.3,424.6c-3,0-5.9-0.4-8.9-0.4h-15.7v0 c-1,0-2.1,0-3.1,0h-1.3c-0.1,0-0.2,0-0.3,0c-26.8,0.3-53.5,0.1-80.2-1.1c-26-1.3-52-2.7-78-1.8c-0.5-30.4-6.4-60.3-6.8-90.7 c-0.2-16.1,0.9-32.1,2.1-48.1c1.2-16,1.2-32,0.9-48.1c-0.4-16.3-1.4-32.6-2.5-48.8c-1-16.2-0.1-32.5,0.6-48.8 c1.4-32.2-0.9-64.3-1.3-96.5c0-0.3,0-0.6,0-0.9c50.2,0,100.4-0.4,150.6-0.7c25.8-0.1,51.6-0.3,77.4-0.3c2.4,0,4.9,0,7.3-0.1 c1,11.5,4.3,22.7,4.9,34.3c0,0.2,0,0.4,0,0.6c-1.2-1.1-2.8-1.8-4.8-1.9c-6-0.4-12.3,0.2-18.3,0.6c-18.4,1.5-37.1,0.9-55.6,1.7 c-37.8,1.7-75.6,4.7-113.4,4.8c-7.1,0-6.2,11,0.8,11c33.3,0,66.6-2.3,99.8-4.1c16.2-0.9,32.3-1.6,48.5-1.8 c8.1-0.1,16.1-0.3,24.2-0.9c2.7-0.2,5.3-0.2,8-0.3c1.1-0.1,2.2-0.1,3.2-0.1c0.2,0,0.5,0,0.7,0c2,1.8,4.9,2.3,7-0.3 c-0.2,9.4-1.6,18.8-4.8,27.6c-1.3,3.6,0.2,6.7,3.9,7.8c4,1.2,8.5,1.3,12.6,1.6c6.7,0.5,13.3,0.9,20,1.4 c6.5,0.5,13.1,1.1,19.6,2.2c1.9,0.3,5.3,1.1,6.3,1.5c0.2,0.1,0.7,0.3,1.2,0.5c0.1,0.5,0.2,1,0.4,1.4c0.1,1,0.2,1.9,0.4,2.9 c2.1,15.6,2.7,31.1,3.5,46.8c0.7,15.8,1.9,31.7,2.2,47.5c0.3,16.2-1.2,32.4-0.5,48.6c0.3,7.7,1.6,15.4,2,23.1 c0.5,8.3,0.4,16.7,0.3,25c0,4.1,0,8.3,0.1,12.4c0,0,0,0,0,0v3.6c-2.3-1.5-4.7-2.8-7.1-3.9c-0.9-0.4-1.8-0.6-2.6-0.5 c-2-5.3-6.8-9.5-12.5-10.9c-5.3-1.2-11.2-1.2-16.7-0.8c-0.7-2.2-2.5-4.1-5.5-4.1c-9.8-0.1-19.5-0.8-29.2-1c-11-0.2-22,0.4-33,1 c-21.4,1.3-42.8,3.4-64.3,4.9c-17.7,1.2-36,2.1-53.7,0.7c-6.8-0.5-13.6-1.1-20.4-1.1c-4.8,0-11.2,0.1-15.1,3.4 c-5.3,4.6,0.8,13.8,6.2,9.1c2.8-2.5,9.5-1.6,13.3-1.5c5.9,0.1,11.9,0.8,17.8,1.2c18,1.3,36.6,0.3,54.6-0.9 c20.8-1.4,41.5-3.5,62.4-4.8c2.3-0.1,4.6-0.3,7-0.4c-1.5,3.2-0.6,7.2,1.3,10.6c-11.2,2.2-20.4,9.6-25.3,20 c-3.7,7.8-3.9,16.2-1.2,23.8c-4.5,0.3-9-0.4-13.5-0.8v-0.7c-1.1,0.1-2.2,0.1-3.4,0.2c-17.7,0.8-35.3,0-53-0.4 c-8.9-0.2-17.7-0.2-26.5,0.5c-9.5,0.7-19,2-28.5,1.4c-7-0.4-9.2,10.4-2.1,10.8c17.4,1,34.8-2.1,52.3-1.9 c18.3,0.3,36.5,1.3,54.8,0.7c0.3,0,0.7,0,1,0c0.3,0,0.5,0.1,0.8,0.1c7,0.1,14,1.9,21,1c1-0.1,1.9-0.5,2.6-1 c0.1,0.1,0.1,0.2,0.2,0.3c-3.2,4-4.5,8.9-3.5,14.9c1.2,7.6,5.3,14.2,11,19.2C299.7,424.6,299,424.6,298.3,424.6z M329.8,353.5 c-5.8,6.9-10.4,14.6-12.7,23.6c-0.1,0.3-0.1,0.6-0.2,0.9c-5.3,1.2-10.5,3.7-15.2,6.1c-0.1-0.2-0.3-0.3-0.4-0.5 c-12-13.4-0.7-34.4,15.8-36.4c1.7-0.2,2.9-1,3.7-2C323.8,348,326.9,350.6,329.8,353.5z M323.1,331c6.1-2.3,14.8-0.7,20.7,0.6 c3.5,0.8,7.1,2.5,9,5.6c0.5,0.8,0.9,1.5,1.3,2.3c-5.7,0.1-11.2,2-15.8,5.3c-0.3,0.1-0.6,0.3-0.9,0.6c-3.1-3.1-6.4-5.9-9.5-8.9 c-1.6-1.6-3.2-3.2-4.5-5.1C323.2,331.3,323.1,331.2,323.1,331z M327.9,379.6c1.9-9.8,8.8-17.9,15.6-24.9 c12.6-11.1,35.3,0.5,43.5,12.2c8.5,12,3.1,27.5-7.8,35.9c-0.4,0.3-0.8,0.6-1.2,0.9c-0.9,0.3-1.7,0.8-2.4,1.5 c-5.6,3.2-11.9,4.7-18.4,5c-7.7,0.3-17.2-1-23.4-6c-5-4-6.6-10.7-6.6-17C329.3,385.5,329.5,382,327.9,379.6z M384.8,349.5 c-5-3.6-10.8-6.3-16.7-8c-0.2-1-0.7-2.1-1.7-3c-1.6-1.5-2.7-3.3-3.7-5.3c0.7-0.4,1.3-0.9,1.8-1.6c0.3-0.1,0.6-0.2,0.8-0.2 c2.2-0.5,4.4-0.6,6.6-0.8c4.5-0.3,9.1-0.4,13.6,0.3c4,0.5,7,3.5,5.8,8.4C390.4,343,387.6,346.4,384.8,349.5z M300.8,405.7 c-2.2-6.6,0.8-9.2,6.3-12.1c2.7-1.4,5.8-2.9,9-4c0.5,6.9,2.6,13.7,6.6,18.9c0,0,0,0,0,0.1c-0.3,0.7-0.5,1.6-0.5,2.5 c0,4.3,0.2,8.7,1,12.8C313.3,422.3,304,415.3,300.8,405.7z M350.2,451.9c-2.6,9.3-4.7,18.8-6.5,28.4c-0.3,1.7-0.6,3.5-1,5.2 c-2.7-2.4-5.3-4.9-8.6-6.6c-9.1-4.8-20-0.6-29.6,3.5c1.2-9.3,4.9-18.5,6.6-27.6c0.7-3.9,1.8-7.7,2.8-11.6 c0.5-2.1,1.1-4.1,1.8-6.1c0.3-0.9,0.8-1.8,1.2-2.6c0.1-0.2,0.2-0.4,0.2-0.5c0.1,0,0.2,0,0.3,0c0,0,0.1,0,0.1,0 c3.4,0.9,6.9,1.4,10.4,1.4c1.6,2.1,3.7,3.9,6.3,5.4c5.9,3.4,11.9,4.1,17.9,3.6C351.4,447,350.8,449.8,350.2,451.9z M342,432 c-6.9-1.9-8.4-8.5-8.7-15c5.2,2.5,11.1,3.9,17.1,4.3c1,5.5,4.3,8.8,8.5,10.8C353.5,433.2,347.9,433.6,342,432z M361.8,421 c5.7-0.7,11.2-2.3,15.8-4.4c0.9-0.4,1.8-0.9,2.6-1.4c2.1,0.5,4.2,0.7,5.7,0.7c6.3,0,12.7-0.7,18.9-1.8c-5.3,6-13.6,7.5-22.3,8.7 C378.6,423.2,365,425.8,361.8,421z M422.7,457.1c-3.7,2.2-4.5,7.6-5.4,11.3c-0.7,3.1-2.7,6-4.6,9c-4.1-5.7-6.4-12.8-9.7-18.8 c-4-7.1-11.1-13-13.8-20.8c0.2-0.9,0.2-1.9-0.2-3c-0.1-0.3-0.4-1.1-0.8-1.9c13.1-2.2,25.4-6.9,30.5-20.9c0.3-0.8,0.4-1.7,0.4-2.4 c0.6-0.3,1.1-0.7,1.7-1.1c4.9,7.7,9.8,15.3,14,23.4c4.1,7.8,8.4,17.2,8.8,26.4C436.5,456.8,429.4,453.1,422.7,457.1z"/></svg>